<?xml version="1.0" encoding="utf-8"?>
<!-- Generator: Adobe Illustrator 26.0.1, SVG Export Plug-In . SVG Version: 6.00 Build 0)  -->
<svg version="1.1" id="Capa_1" xmlns="http://www.w3.org/2000/svg" xmlns:xlink="http://www.w3.org/1999/xlink" x="0px" y="0px"
	 viewBox="0 0 1061 601" style="enable-background:new 0 0 1061 601;" xml:space="preserve">
<style type="text/css">
	.st0{opacity:0.5;}
	.st1{fill:#FFFFFF;}
	.st2{opacity:0.75;}
</style>
<g class="st0">
	<path class="st1" d="M0.5,476.4c177.7,69.9,350.2,91.4,537,45.8c66.8-15.7,131.5-38.4,197.3-57.8c46.5-13.5,94.2-25.5,142.9-26.6
		c11.2-0.3,23.2,0.1,34.3,1.2c0,0,8.5,0.9,8.5,0.9s8.5,1.3,8.5,1.3s4.2,0.6,4.2,0.6c0,0,4.2,0.8,4.2,0.8c0,0,8.4,1.7,8.4,1.7
		s8.3,2.1,8.3,2.1c0,0,4.2,1.1,4.2,1.1s4.1,1.3,4.1,1.3c35.7,10.5,68.7,28.9,98.2,51.4c0,0-0.1,0.1-0.1,0.1
		c-29.6-22.2-62.7-40.5-98.3-50.8c0,0-4.1-1.2-4.1-1.2c-2.4-0.6-9.9-2.5-12.5-3.1c-3.3-0.7-9.5-1.9-12.6-2.5
		c-2.4-0.4-10.1-1.5-12.7-1.9c-11-1.2-23-2.1-34.1-2c-51.5-0.1-102,12.4-151.2,26.7c-87.4,26.2-174.1,56.7-264.6,70.8
		C309.2,563.2,150.8,537.6,0.5,476.4L0.5,476.4z"/>
</g>
<g class="st2">
	<path class="st1" d="M1060.5,546.4c-177.7-69.9-350.2-91.4-537-45.8c-66.8,15.7-131.5,38.4-197.3,57.8
		c-46.5,13.5-94.2,25.5-142.9,26.6c-11.2,0.3-23.2-0.1-34.3-1.2c0,0-8.5-0.9-8.5-0.9s-8.5-1.3-8.5-1.3s-4.2-0.6-4.2-0.6
		s-4.2-0.8-4.2-0.8l-8.4-1.7c0,0-8.3-2.1-8.3-2.1s-4.2-1.1-4.2-1.1c0,0-4.1-1.3-4.1-1.3C63,563.5,30,545.1,0.5,522.7
		c0,0,0.1-0.1,0.1-0.1c29.6,22.2,62.7,40.5,98.3,50.8c0,0,4.1,1.2,4.1,1.2c2.4,0.6,9.9,2.5,12.5,3.1c3.3,0.7,9.5,1.9,12.6,2.5
		c2.4,0.4,10.1,1.5,12.7,1.9c11,1.2,23,2.1,34.1,2c51.5,0.1,102-12.4,151.2-26.7c87.4-26.2,174.1-56.7,264.6-70.8
		C751.8,459.6,910.2,485.2,1060.5,546.4L1060.5,546.4z"/>
</g>
<g class="st0">
	<path class="st1" d="M5.5,450.5c151,60.1,314.2,87,476.5,83.2c162.7-1.9,322.5-37.2,484.5-48.4c50.6-3.1,101.8-2.6,151.9,6
		c35.9,6.2,70.9,17.1,103.6,33.3c5.7,3.1,14.4,7.5,20,11c11.7,6.8,23.1,14.6,33.7,22.7c-46-34.7-100.7-56.8-157.4-66.3
		c-43.3-7.3-87.6-8.5-131.4-6.8c-142,7-281.8,36.6-423.7,45.2C374.4,544.6,181.1,522.8,5.5,450.5L5.5,450.5z"/>
</g>
<g class="st0">
	<path class="st1" d="M-1051.5,450.5c279.2-36.7,562.3-55.1,843.5-36.2c187.6,12.3,373.8,43.2,555.4,91.8
		c86.6,22.5,172.2,49.3,259.5,69.5c9.4,2,20.7,4.6,30.1,6.4c11.1,2.3,23.4,4.4,34.7,6.3c83.8,13.4,162.6,10.6,242.8-19
		c0,0,16.4-6.3,16.4-6.3c1.4-0.5,2.7-1.1,4.1-1.7c0,0,4-1.8,4-1.8s8.1-3.5,8.1-3.5c0,0,4-1.8,4-1.8c1.3-0.6,2.7-1.2,4-1.8
		c0,0,7.9-3.9,7.9-3.9s7.9-3.9,7.9-3.9l4-1.9c9.7-5.2,25.1-13.4,34.6-19.2c45.5-26.9,88.1-58.5,128.9-92.1c0,0,0.1,0.1,0.1,0.1
		c-45.2,37.4-92.7,72.5-143.9,101.3c0,0-15.5,8.4-15.5,8.4s-3.9,2.1-3.9,2.1c0,0-4,1.9-4,1.9c-7.6,3.6-16.2,8.1-23.9,11.3
		c-37.4,16.9-77.3,29.2-117.8,35.4c-64,9.8-129.6,3.8-192.7-9.1c-51.8-10.3-102.9-24.5-153.8-38.6C257.7,478.1,26.9,428.5-208,414.6
		c-128.7-8.4-258.5-9.1-387.4-3.8C-746,416.5-902,431.6-1051.5,450.5L-1051.5,450.5z"/>
</g>
</svg>
