<?xml version="1.0" encoding="utf-8"?>
<!-- Generator: Adobe Illustrator 26.0.1, SVG Export Plug-In . SVG Version: 6.00 Build 0)  -->
<svg version="1.1" id="Capa_1" xmlns="http://www.w3.org/2000/svg" xmlns:xlink="http://www.w3.org/1999/xlink" x="0px" y="0px"
	 viewBox="0 0 1061 601" style="enable-background:new 0 0 1061 601;" xml:space="preserve">
<style type="text/css">
	.st0{opacity:0.75;}
	.st1{fill:#FF5500;}
	.st2{fill:#FFFFFF;}
</style>
<g class="st0">
	<path class="st1" d="M0.3,519.5c49.2,13.1,100,24.4,151.2,32.7c70.8,11.3,143.6,17.2,216.3,15.9c103.2-1.8,203.1-21.5,300.7-43.7
		c68-14.9,136.8-31.8,208.8-32.9c11.2-0.1,23.2,0.1,34.4,0.9l8.6,0.6l8.5,0.9l4.3,0.5c5.3,0.8,8,1.2,12.7,1.8l8.3,1.5l4.2,0.8
		c17.8,3.7,35.3,8.7,51.8,14.7l7.5,2.9l3.8,1.5c1.2,0.5,2.4,1.1,3.7,1.5l7.3,3.2c9.5,4.2,19.1,9.2,28,13.9l-0.2,0.2
		c-9.1-4.6-18.8-9.3-28.5-13.4c-4.6-1.8-10.2-4.3-14.9-5.9c-22.4-8.5-46.8-14.9-71.7-18.9l-8.4-1.1l-4.2-0.6
		c-2.4-0.2-10.1-1.1-12.6-1.3c-13.9-1.1-28.5-1.6-42.5-1.3c-71.5,1.7-139.9,18.3-207.7,32.8c-59.9,13.2-120.6,25.5-182.5,33
		c-50.5,6.4-102.2,9.8-153.5,9.9c-61.5,0.1-123-5.4-182.8-15.3C99.8,545.6,47.6,534.2,0.3,519.5L0.3,519.5z"/>
</g>
<g>
	<path class="st2" d="M1061,575.1c-94.4-24.3-191.7-36-288.7-43.7c-33.8-2.5-74.4-4.6-108.4-5.5c-222.6-6.3-446,15.9-664.1,60.6
		c218.2-44.7,441.3-67.2,664.1-60.8c34,1,74.6,3.1,108.5,5.6C869.3,539,966.6,550.7,1061,575.1L1061,575.1z"/>
</g>
<g>
	<path class="st1" d="M1056.9,586.4c-189.1,13.5-379.4-3.1-566.4-31.2C425,545,358,532.5,293.2,518.5
		c-98-21.2-195.3-46.5-291.2-75.6c96,29.1,193.2,54.4,291.2,75.5c64.8,14,131.7,26.5,197.2,36.5C677.5,583,867.9,599.6,1056.9,586.4
		L1056.9,586.4z"/>
</g>
</svg>
