<?xml version="1.0" encoding="utf-8"?>
<!-- Generator: Adobe Illustrator 26.0.1, SVG Export Plug-In . SVG Version: 6.00 Build 0)  -->
<svg version="1.1" id="Capa_1" xmlns="http://www.w3.org/2000/svg" xmlns:xlink="http://www.w3.org/1999/xlink" x="0px" y="0px"
	 viewBox="0 0 1061 601" style="enable-background:new 0 0 1061 601;" xml:space="preserve">
<style type="text/css">
	.st0{opacity:0.25;}
	.st1{fill:#FFFFFF;}
	.st2{fill:#F25C05;}
	.st3{fill:#F24405;}
	.st4{opacity:0.35;fill:#FFFFFF;}
</style>
<g class="st0">
	<path class="st1" d="M1060.4,548.2c-49.2-18.6-100-34.6-151.2-46.5c-70.8-16-143.6-24.5-216.3-22.6
		c-103.2,2.5-203.1,30.6-300.7,62.1c-68,21.2-136.8,45.2-208.8,46.8c-11.2,0.2-23.2-0.2-34.4-1.3l-8.6-0.9l-8.5-1.3l-4.3-0.7
		c-5.3-1.1-8-1.7-12.7-2.6l-8.3-2.2l-4.2-1.1c-17.8-5.2-35.3-12.3-51.8-20.9l-7.5-4.1l-3.8-2.1c-1.2-0.7-2.4-1.5-3.7-2.2l-7.3-4.5
		c-9.5-6-19.1-13-28-19.8l0.2-0.3c9.1,6.5,18.8,13.2,28.5,19c4.6,2.6,10.2,6.1,14.9,8.4c22.4,12.1,46.8,21.2,71.7,26.8l8.4,1.6
		l4.2,0.8c2.4,0.3,10.1,1.5,12.6,1.8c13.9,1.5,28.5,2.3,42.5,1.8c71.5-2.4,139.9-26,207.7-46.6c59.9-18.7,120.6-36.2,182.5-46.9
		c50.5-9.1,102.2-13.9,153.5-14c61.5-0.2,123,7.6,182.8,21.8C960.9,511.1,1013.1,527.3,1060.4,548.2L1060.4,548.2z"/>
</g>
<rect x="392.4" y="-243.8" class="st2" width="203.3" height="203.3"/>
<rect x="667.7" y="-243.8" class="st3" width="203.3" height="203.3"/>
<path class="st4" d="M3.2,533.6c175.3,2.4,353.5,5,528.7,1.9c131.3-1.9,265.1-6.4,396.3-11.8c44-1.6,88.1-3.5,132.1-5.3
	C709.3,539.3,354.6,545.3,3.2,533.6L3.2,533.6z"/>
</svg>
