<?xml version="1.0" encoding="utf-8"?>
<!-- Generator: Adobe Illustrator 26.0.1, SVG Export Plug-In . SVG Version: 6.00 Build 0)  -->
<svg version="1.1" id="Capa_1" xmlns="http://www.w3.org/2000/svg" xmlns:xlink="http://www.w3.org/1999/xlink" x="0px" y="0px"
	 viewBox="0 0 1061 601" style="enable-background:new 0 0 1061 601;" xml:space="preserve">
<style type="text/css">
	.st0{fill:#6300FF;}
	.st1{fill:#FFFFFF;}
	.st2{fill:#FFFFFF;stroke:#000000;stroke-miterlimit:10;}
</style>
<g>
	<path class="st0" d="M-0.2,571.5c197.1-29.3,395.8-49.5,595-54.8c66.4-1.4,133-1.2,199.3,3.1c66.2,4.6,132.8,11.8,196.5,31.1
		c21.1,6.6,41.9,14.7,61.2,25.6c-19.4-10.7-40.2-18.6-61.4-24.9c-42.5-12.5-86.4-19.3-130.3-24.1c-66-7-132.5-8.9-198.8-8.9
		C439.9,520.3,219,541.9-0.2,571.5L-0.2,571.5z"/>
</g>
<g>
	<path class="st1" d="M1051.8,499.5c-41.4,18.3-84.2,33.2-127.7,45.5c-47.6,13.2-96.5,22.9-145.9,25.5c-6,0.2-15.2,0.6-21.2,0.5
		c-56.5-0.2-113.1-6.1-168.4-17.6c-69.3-13.6-136.2-38.3-206.2-48.5c-30.7-4.4-62-5-92.9-1.6c-9.6,1.4-24.1,3.1-33.5,4.9l-16.7,3
		l-4.2,0.8c-6.2,1.3-14.6,3.2-20.7,4.6c-9.5,2-23.5,5.9-32.9,8.3C132.7,538.5,84.4,556,38,576.4c-12.6,5.6-25.8,11.6-38.2,18
		c12.4-6.4,25.5-12.4,38.3-18.2c69.6-30.8,142.7-55.6,217.8-68.7c9.4-1.8,23.9-3.5,33.6-4.9c28.1-3.2,56.6-3,84.7,0.4
		c73.1,9.1,142.6,35.3,214.7,49.5C644.1,564,700.5,570,757,570.3c5.4,0.1,15.6-0.2,21.2-0.5c49.4-2.5,98.2-12.2,145.8-25.3
		C967.5,532.4,1010.4,517.6,1051.8,499.5L1051.8,499.5z"/>
</g>
<path class="st2" d="M0.9,554.7"/>
<g>
	<path class="st0" d="M4.5,530.4c185.2,25.9,372.5,37,559.5,36.2c133-0.8,267.2-9.1,398.9-27.6c13.6-2.1,31.3-4.8,44.9-6.9
		c12.6-2.1,36.4-6.4,48.8-8.5c-12.4,2.1-37,6.6-48.8,8.6c-13.6,2.1-31.3,4.8-44.9,6.9c-120.8,17.1-244,25.5-366,27.4
		C399,569,200.5,557.9,4.5,530.4L4.5,530.4z"/>
</g>
</svg>
