<?xml version="1.0" encoding="utf-8"?>
<!-- Generator: Adobe Illustrator 26.0.1, SVG Export Plug-In . SVG Version: 6.00 Build 0)  -->
<svg version="1.1" id="Capa_1" xmlns="http://www.w3.org/2000/svg" xmlns:xlink="http://www.w3.org/1999/xlink" x="0px" y="0px"
	 viewBox="0 0 16 16" style="enable-background:new 0 0 16 16;" xml:space="preserve">
<style type="text/css">
	.st0{fill-rule:evenodd;clip-rule:evenodd;fill:#F24405;}
</style>
<path class="st0" d="M12.5,13.4c-3,2.5-7.4,2.1-9.9-0.9S0.5,5.1,3.5,2.6s7.4-2.1,9.9,0.9c1.2,1.4,1.7,3.2,1.6,5c0.3,0,0.7,0.1,1,0.3
	c0.5-4.4-2.7-8.3-7.1-8.8S0.5,2.8,0,7.2s2.7,8.3,7.1,8.8c2.2,0.2,4.5-0.5,6.1-2C13,13.8,12.8,13.6,12.5,13.4z M8.8,10.1
	c-0.4,0.1-0.7,0.2-1.1,0.3c-0.3,0.1-0.5,0-0.6-0.3c-0.1-0.3,0-0.5,0.3-0.6c0,0,0,0,0,0c0.4-0.1,0.8-0.3,1.2-0.3
	C8.9,9.1,9.3,9,9.6,9.1c0.2,0,0.4,0.1,0.6,0.3c0.2,0.2,0.2,0.5,0.1,0.7c-0.1,0.2-0.2,0.4-0.3,0.6c-0.1,0.1-0.2,0.2-0.3,0.3
	c0.1,0.1,0.2,0.2,0.3,0.3c0.1,0.2,0.3,0.4,0.3,0.6c0.1,0.2,0.1,0.5-0.1,0.7c-0.2,0.2-0.4,0.3-0.6,0.3c-0.3,0-0.7,0-1.1-0.1
	c-0.4-0.1-0.8-0.2-1.2-0.3c-0.3-0.1-0.4-0.4-0.3-0.6c0.1-0.3,0.4-0.4,0.6-0.3c0,0,0,0,0,0c0.4,0.1,0.8,0.2,1.1,0.3
	c0.2,0,0.3,0.1,0.4,0.1c-0.2-0.2-0.3-0.4-0.5-0.6c-0.2-0.2-0.2-0.5,0-0.7c0.2-0.2,0.3-0.4,0.5-0.6C9.1,10.1,8.9,10.1,8.8,10.1
	L8.8,10.1z M9.5,10.1L9.5,10.1L9.5,10.1C9.5,10.1,9.5,10.1,9.5,10.1z M9.5,11.9L9.5,11.9C9.5,11.9,9.5,11.9,9.5,11.9L9.5,11.9z M6,8
	c0.6,0,1-0.7,1-1.5S6.6,5,6,5S5,5.7,5,6.5S5.4,8,6,8z M8.8,7.4c0.2,0.1,0.5,0,0.7-0.2c0,0,0,0,0,0c0.2-0.3,0.5-0.5,0.8-0.5
	c0.3,0,0.6,0.2,0.8,0.5c0.1,0.2,0.4,0.3,0.7,0.2C12,7.3,12.1,7,11.9,6.8l0,0c-0.3-0.6-1-1-1.7-1c-0.7,0-1.4,0.4-1.7,1
	C8.4,7,8.5,7.3,8.8,7.4C8.8,7.4,8.8,7.4,8.8,7.4z M14,9.8c1.1-1.1,3.9,0.9,0,3.4C10.1,10.7,12.9,8.7,14,9.8L14,9.8z"/>
</svg>
